<svg version="1.1" id="Layer_1" xmlns="http://www.w3.org/2000/svg" xmlns:xlink="http://www.w3.org/1999/xlink" x="0px" y="0px"
	 width="100%" viewBox="0 0 1200 1200" enable-background="new 0 0 1200 1200" xml:space="preserve">
<path fill="#193833" opacity="1.000000" stroke="none" 
	d="
M881.000000,1201.000000 
	C587.333313,1201.000000 294.166656,1201.000000 1.000000,1201.000000 
	C1.000000,801.000000 1.000000,401.000000 1.000000,1.000000 
	C401.000000,1.000000 801.000000,1.000000 1201.000000,1.000000 
	C1201.000000,401.000000 1201.000000,801.000000 1201.000000,1201.000000 
	C1094.500000,1201.000000 988.000000,1201.000000 881.000000,1201.000000 
M175.998657,725.500000 
	C175.998657,758.264648 175.998657,791.029297 175.998657,823.924316 
	C231.110352,823.924316 285.676697,823.924316 340.524231,823.924316 
	C340.524231,765.969116 340.524231,708.255249 340.524231,650.303955 
	C285.656677,650.303955 230.972778,650.303955 175.998657,650.303955 
	C175.998657,675.238831 175.998657,699.869446 175.998657,725.500000 
M610.500000,649.999512 
	C580.056396,649.999512 549.612732,649.999512 518.950012,649.999512 
	C518.950012,708.200562 518.950012,765.916443 518.950012,823.898560 
	C573.726807,823.898560 628.267334,823.898560 683.047119,823.898560 
	C683.047119,765.921448 683.047119,708.205383 683.047119,649.999512 
	C659.058533,649.999512 635.279297,649.999512 610.500000,649.999512 
M512.021240,672.500000 
	C512.021240,665.075562 512.021240,657.651062 512.021240,650.283447 
	C456.799988,650.283447 402.242371,650.283447 347.526001,650.283447 
	C347.526001,708.279236 347.526001,765.989807 347.526001,823.774170 
	C402.485748,823.774170 457.155029,823.774170 512.021240,823.774170 
	C512.021240,773.421570 512.021240,723.460754 512.021240,672.500000 
M861.193726,766.499939 
	C861.193726,785.599426 861.193726,804.698853 861.193726,823.927429 
	C916.407349,823.927429 970.976135,823.927429 1025.631836,823.927429 
	C1025.631836,765.844360 1025.631836,708.001160 1025.631836,650.321289 
	C970.696960,650.321289 916.132446,650.321289 861.193726,650.321289 
	C861.193726,688.928650 861.193726,727.214294 861.193726,766.499939 
M689.978760,738.500000 
	C689.978760,766.929626 689.978760,795.359314 689.978760,823.918945 
	C745.087830,823.918945 799.646851,823.918945 854.484497,823.918945 
	C854.484497,765.961792 854.484497,708.251526 854.484497,650.308899 
	C799.614319,650.308899 744.937134,650.308899 689.978760,650.308899 
	C689.978760,679.578979 689.978760,708.539490 689.978760,738.500000 
M625.276733,407.317108 
	C625.576477,410.463806 626.174805,413.614868 626.129150,416.756561 
	C625.737183,443.740967 625.292725,470.725037 624.729431,497.706360 
	C624.424744,512.295776 622.408142,526.659668 615.935425,539.892456 
	C613.053467,545.784485 609.470886,551.631104 605.020386,556.389160 
	C598.254700,563.622437 588.814331,563.350525 581.290955,556.882385 
	C575.033020,551.502136 571.908936,544.548645 570.985352,536.455750 
	C570.117737,528.853210 569.646484,521.161255 568.120422,513.688416 
	C565.703430,501.852875 561.339783,499.216614 549.549866,501.220123 
	C540.042603,502.835785 534.106873,508.453156 534.573059,518.119751 
	C535.162292,530.337952 535.468689,543.161804 539.412109,554.502197 
	C547.463318,577.655762 566.865540,594.331665 591.399780,593.179443 
	C616.921204,591.980896 635.700500,578.888794 646.888672,555.891357 
	C656.310730,536.524292 659.077820,515.416016 659.825012,494.258850 
	C660.882996,464.300781 660.780640,434.300781 661.066589,404.317688 
	C661.099670,400.848572 660.552124,397.359070 660.091980,393.903259 
	C659.250610,387.585297 655.129333,384.285431 649.272522,383.044067 
	C634.634766,379.941467 623.951294,389.184814 624.957031,403.935944 
	C625.013672,404.766998 625.088196,405.596832 625.276733,407.317108 
z"/>
<path fill="#DADADA" opacity="1.000000" stroke="none" 
	d="
M175.998657,725.000000 
	C175.998657,699.869446 175.998657,675.238831 175.998657,650.303955 
	C230.972778,650.303955 285.656677,650.303955 340.524231,650.303955 
	C340.524231,708.255249 340.524231,765.969116 340.524231,823.924316 
	C285.676697,823.924316 231.110352,823.924316 175.998657,823.924316 
	C175.998657,791.029297 175.998657,758.264648 175.998657,725.000000 
M283.623840,720.498352 
	C283.574036,714.180603 283.797607,707.845093 283.388550,701.550659 
	C283.056854,696.446045 280.636688,694.643127 275.962738,694.964539 
	C271.017426,695.304626 268.207489,698.304382 268.206390,702.897827 
	C268.202881,717.517273 268.488159,732.153503 267.847931,746.747498 
	C267.608002,752.216919 265.575989,757.764221 263.526337,762.945740 
	C262.024200,766.743225 259.402618,770.427795 254.288147,769.946655 
	C250.225418,769.564453 246.727753,765.337952 245.915497,759.993286 
	C245.441010,756.871155 245.343811,753.679260 244.692917,750.599854 
	C243.991089,747.279541 242.974762,744.138245 238.312210,744.601562 
	C233.389206,745.090698 230.433304,747.199890 230.438416,751.782349 
	C230.443375,756.232849 230.791153,760.801025 231.837585,765.111267 
	C235.771591,781.315430 252.551132,788.171265 266.732544,779.577515 
	C272.786011,775.909241 276.961639,770.781616 279.188629,763.968567 
	C283.717926,750.111877 283.409485,735.784424 283.623840,720.498352 
z"/>
<path fill="#DBDBDB" opacity="1.000000" stroke="none" 
	d="
M611.000000,649.999512 
	C635.279297,649.999512 659.058533,649.999512 683.047119,649.999512 
	C683.047119,708.205383 683.047119,765.921448 683.047119,823.898560 
	C628.267334,823.898560 573.726807,823.898560 518.950012,823.898560 
	C518.950012,765.916443 518.950012,708.200562 518.950012,649.999512 
	C549.612732,649.999512 580.056396,649.999512 611.000000,649.999512 
M624.818359,753.671143 
	C623.591125,744.157349 618.585083,737.804016 609.297913,734.937256 
	C606.764343,734.155212 604.099060,733.455017 601.878296,732.091614 
	C599.115234,730.395447 596.219299,728.445557 594.326538,725.901550 
	C590.622559,720.923340 591.931885,715.736206 597.086731,712.184387 
	C602.377991,708.538452 606.030212,709.312805 610.126221,714.994019 
	C610.999695,716.205627 611.732117,717.518005 612.580505,718.748840 
	C614.275879,721.208740 616.306335,724.850037 619.435852,722.611877 
	C621.982788,720.790405 624.541870,716.763977 624.418701,713.827576 
	C623.960571,702.906860 611.319824,693.499878 600.644470,695.277466 
	C589.228455,697.178345 579.292358,708.004639 578.248108,719.680298 
	C577.200623,731.392456 583.976074,741.632812 595.544922,745.996216 
	C599.263672,747.398865 603.043091,748.762390 606.522339,750.646729 
	C610.726013,752.923401 611.943359,757.633667 608.753174,761.107727 
	C606.610352,763.441345 603.124390,764.886353 599.970825,765.852051 
	C596.687073,766.857605 593.020508,766.540222 589.632324,767.297791 
	C586.217224,768.061401 583.405090,769.843567 583.657410,774.070984 
	C583.908447,778.276001 586.454712,780.631348 590.341064,780.796082 
	C606.212830,781.468933 623.130066,775.738708 624.818359,753.671143 
z"/>
<path fill="#DADADA" opacity="1.000000" stroke="none" 
	d="
M512.021240,673.000000 
	C512.021240,723.460754 512.021240,773.421570 512.021240,823.774170 
	C457.155029,823.774170 402.485748,823.774170 347.526001,823.774170 
	C347.526001,765.989807 347.526001,708.279236 347.526001,650.283447 
	C402.242371,650.283447 456.799988,650.283447 512.021240,650.283447 
	C512.021240,657.651062 512.021240,665.075562 512.021240,673.000000 
M414.695129,737.116882 
	C410.456665,749.008789 406.227295,760.903931 401.973969,772.790527 
	C400.777771,776.133423 400.726990,779.222351 404.596161,780.661316 
	C408.237946,782.015625 411.569275,781.415894 413.467133,777.527405 
	C414.996613,774.393677 417.149597,771.301941 417.659241,767.981750 
	C419.224670,757.783020 425.952881,755.428162 434.829315,754.994141 
	C438.395874,754.819702 440.096619,755.696411 440.695801,759.128235 
	C441.696014,764.856812 442.689514,770.592041 443.928772,776.271423 
	C444.734009,779.961914 446.401794,783.004456 451.125122,781.705261 
	C455.771606,780.427124 457.309113,777.661926 456.414612,772.758179 
	C451.939941,748.227295 447.488525,723.692139 443.091858,699.147156 
	C442.044037,693.297607 437.141113,691.060913 432.630981,695.055908 
	C430.162933,697.242065 428.368530,700.553284 427.129272,703.695862 
	C422.864594,714.510254 418.978516,725.473999 414.695129,737.116882 
z"/>
<path fill="#DADADA" opacity="1.000000" stroke="none" 
	d="
M861.193726,765.999878 
	C861.193726,727.214294 861.193726,688.928650 861.193726,650.321289 
	C916.132446,650.321289 970.696960,650.321289 1025.631836,650.321289 
	C1025.631836,708.001160 1025.631836,765.844360 1025.631836,823.927429 
	C970.976135,823.927429 916.407349,823.927429 861.193726,823.927429 
	C861.193726,804.698853 861.193726,785.599426 861.193726,765.999878 
M971.756042,750.364807 
	C972.100037,743.877563 972.354309,737.383972 972.809326,730.904541 
	C973.473816,721.441406 974.338806,711.992493 975.000854,702.529236 
	C975.252991,698.924744 974.480469,695.653870 970.025085,695.330566 
	C965.731018,695.018921 962.567017,696.855652 961.238647,701.116272 
	C960.851868,702.356873 960.909790,703.751587 960.859741,705.079285 
	C960.490051,714.898254 960.222168,724.721924 959.760925,734.536438 
	C959.507507,739.928406 958.941223,745.305664 958.516052,750.689514 
	C956.544006,749.244202 955.593628,747.716248 954.878357,746.085144 
	C948.269165,731.015625 941.667236,715.942627 935.143188,700.836121 
	C933.482300,696.990417 931.334412,694.298706 926.566650,694.926270 
	C921.274048,695.622925 919.837158,697.697815 919.068237,705.933716 
	C917.118164,726.819580 915.156982,747.704651 913.080505,768.578125 
	C912.166260,777.767456 913.158875,780.566345 918.060547,780.964172 
	C923.598267,781.413635 926.247070,778.212769 926.991394,769.655151 
	C928.073547,757.212524 928.973999,744.754150 929.984192,732.305115 
	C930.087952,731.026978 930.411072,729.766602 930.739929,727.881775 
	C939.440796,744.656982 947.783264,760.533691 955.897583,776.526184 
	C958.021301,780.711792 960.976624,781.970276 965.246399,780.751587 
	C969.756470,779.464294 970.755676,775.803711 970.946106,771.791992 
	C971.269958,764.971497 971.453674,758.144409 971.756042,750.364807 
z"/>
<path fill="#DADADA" opacity="1.000000" stroke="none" 
	d="
M689.978760,738.000000 
	C689.978760,708.539490 689.978760,679.578979 689.978760,650.308899 
	C744.937134,650.308899 799.614319,650.308899 854.484497,650.308899 
	C854.484497,708.251526 854.484497,765.961792 854.484497,823.918945 
	C799.646851,823.918945 745.087830,823.918945 689.978760,823.918945 
	C689.978760,795.359314 689.978760,766.929626 689.978760,738.000000 
M737.092590,751.145813 
	C737.395508,752.949707 737.597656,754.777466 738.017578,756.553711 
	C740.943176,768.928406 751.356384,779.619385 762.446045,780.718323 
	C774.626587,781.925354 785.369812,778.383850 794.299133,769.592468 
	C808.875488,755.241150 811.052673,727.478149 804.024353,712.665527 
	C800.201843,704.609497 794.376160,699.058960 785.354309,696.829651 
	C763.578979,691.448853 747.347961,704.408875 741.373352,721.820801 
	C738.315063,730.733704 738.389160,740.721436 737.092590,751.145813 
z"/>
<path fill="#DADADA" opacity="1.000000" stroke="none" 
	d="
M625.215576,406.872162 
	C625.088196,405.596832 625.013672,404.766998 624.957031,403.935944 
	C623.951294,389.184814 634.634766,379.941467 649.272522,383.044067 
	C655.129333,384.285431 659.250610,387.585297 660.091980,393.903259 
	C660.552124,397.359070 661.099670,400.848572 661.066589,404.317688 
	C660.780640,434.300781 660.882996,464.300781 659.825012,494.258850 
	C659.077820,515.416016 656.310730,536.524292 646.888672,555.891357 
	C635.700500,578.888794 616.921204,591.980896 591.399780,593.179443 
	C566.865540,594.331665 547.463318,577.655762 539.412109,554.502197 
	C535.468689,543.161804 535.162292,530.337952 534.573059,518.119751 
	C534.106873,508.453156 540.042603,502.835785 549.549866,501.220123 
	C561.339783,499.216614 565.703430,501.852875 568.120422,513.688416 
	C569.646484,521.161255 570.117737,528.853210 570.985352,536.455750 
	C571.908936,544.548645 575.033020,551.502136 581.290955,556.882385 
	C588.814331,563.350525 598.254700,563.622437 605.020386,556.389160 
	C609.470886,551.631104 613.053467,545.784485 615.935425,539.892456 
	C622.408142,526.659668 624.424744,512.295776 624.729431,497.706360 
	C625.292725,470.725037 625.737183,443.740967 626.129150,416.756561 
	C626.174805,413.614868 625.576477,410.463806 625.215576,406.872162 
z"/>
<path fill="#1D3B37" opacity="1.000000" stroke="none" 
	d="
M283.627563,720.997559 
	C283.409485,735.784424 283.717926,750.111877 279.188629,763.968567 
	C276.961639,770.781616 272.786011,775.909241 266.732544,779.577515 
	C252.551132,788.171265 235.771591,781.315430 231.837585,765.111267 
	C230.791153,760.801025 230.443375,756.232849 230.438416,751.782349 
	C230.433304,747.199890 233.389206,745.090698 238.312210,744.601562 
	C242.974762,744.138245 243.991089,747.279541 244.692917,750.599854 
	C245.343811,753.679260 245.441010,756.871155 245.915497,759.993286 
	C246.727753,765.337952 250.225418,769.564453 254.288147,769.946655 
	C259.402618,770.427795 262.024200,766.743225 263.526337,762.945740 
	C265.575989,757.764221 267.608002,752.216919 267.847931,746.747498 
	C268.488159,732.153503 268.202881,717.517273 268.206390,702.897827 
	C268.207489,698.304382 271.017426,695.304626 275.962738,694.964539 
	C280.636688,694.643127 283.056854,696.446045 283.388550,701.550659 
	C283.797607,707.845093 283.574036,714.180603 283.627563,720.997559 
z"/>
<path fill="#1C3B36" opacity="1.000000" stroke="none" 
	d="
M624.822937,754.094604 
	C623.130066,775.738708 606.212830,781.468933 590.341064,780.796082 
	C586.454712,780.631348 583.908447,778.276001 583.657410,774.070984 
	C583.405090,769.843567 586.217224,768.061401 589.632324,767.297791 
	C593.020508,766.540222 596.687073,766.857605 599.970825,765.852051 
	C603.124390,764.886353 606.610352,763.441345 608.753174,761.107727 
	C611.943359,757.633667 610.726013,752.923401 606.522339,750.646729 
	C603.043091,748.762390 599.263672,747.398865 595.544922,745.996216 
	C583.976074,741.632812 577.200623,731.392456 578.248108,719.680298 
	C579.292358,708.004639 589.228455,697.178345 600.644470,695.277466 
	C611.319824,693.499878 623.960571,702.906860 624.418701,713.827576 
	C624.541870,716.763977 621.982788,720.790405 619.435852,722.611877 
	C616.306335,724.850037 614.275879,721.208740 612.580505,718.748840 
	C611.732117,717.518005 610.999695,716.205627 610.126221,714.994019 
	C606.030212,709.312805 602.377991,708.538452 597.086731,712.184387 
	C591.931885,715.736206 590.622559,720.923340 594.326538,725.901550 
	C596.219299,728.445557 599.115234,730.395447 601.878296,732.091614 
	C604.099060,733.455017 606.764343,734.155212 609.297913,734.937256 
	C618.585083,737.804016 623.591125,744.157349 624.822937,754.094604 
z"/>
<path fill="#1C3B36" opacity="1.000000" stroke="none" 
	d="
M414.821655,736.748840 
	C418.978516,725.473999 422.864594,714.510254 427.129272,703.695862 
	C428.368530,700.553284 430.162933,697.242065 432.630981,695.055908 
	C437.141113,691.060913 442.044037,693.297607 443.091858,699.147156 
	C447.488525,723.692139 451.939941,748.227295 456.414612,772.758179 
	C457.309113,777.661926 455.771606,780.427124 451.125122,781.705261 
	C446.401794,783.004456 444.734009,779.961914 443.928772,776.271423 
	C442.689514,770.592041 441.696014,764.856812 440.695801,759.128235 
	C440.096619,755.696411 438.395874,754.819702 434.829315,754.994141 
	C425.952881,755.428162 419.224670,757.783020 417.659241,767.981750 
	C417.149597,771.301941 414.996613,774.393677 413.467133,777.527405 
	C411.569275,781.415894 408.237946,782.015625 404.596161,780.661316 
	C400.726990,779.222351 400.777771,776.133423 401.973969,772.790527 
	C406.227295,760.903931 410.456665,749.008789 414.821655,736.748840 
M436.782532,741.914124 
	C435.918152,735.661133 435.053772,729.408142 434.189423,723.155151 
	C433.437439,723.123230 432.685486,723.091309 431.933533,723.059387 
	C429.833405,729.993469 427.733276,736.927551 425.149078,745.459900 
	C429.928680,744.279358 433.184998,743.475037 436.782532,741.914124 
z"/>
<path fill="#1C3B36" opacity="1.000000" stroke="none" 
	d="
M971.726135,750.842407 
	C971.453674,758.144409 971.269958,764.971497 970.946106,771.791992 
	C970.755676,775.803711 969.756470,779.464294 965.246399,780.751587 
	C960.976624,781.970276 958.021301,780.711792 955.897583,776.526184 
	C947.783264,760.533691 939.440796,744.656982 930.739929,727.881775 
	C930.411072,729.766602 930.087952,731.026978 929.984192,732.305115 
	C928.973999,744.754150 928.073547,757.212524 926.991394,769.655151 
	C926.247070,778.212769 923.598267,781.413635 918.060547,780.964172 
	C913.158875,780.566345 912.166260,777.767456 913.080505,768.578125 
	C915.156982,747.704651 917.118164,726.819580 919.068237,705.933716 
	C919.837158,697.697815 921.274048,695.622925 926.566650,694.926270 
	C931.334412,694.298706 933.482300,696.990417 935.143188,700.836121 
	C941.667236,715.942627 948.269165,731.015625 954.878357,746.085144 
	C955.593628,747.716248 956.544006,749.244202 958.516052,750.689514 
	C958.941223,745.305664 959.507507,739.928406 959.760925,734.536438 
	C960.222168,724.721924 960.490051,714.898254 960.859741,705.079285 
	C960.909790,703.751587 960.851868,702.356873 961.238647,701.116272 
	C962.567017,696.855652 965.731018,695.018921 970.025085,695.330566 
	C974.480469,695.653870 975.252991,698.924744 975.000854,702.529236 
	C974.338806,711.992493 973.473816,721.441406 972.809326,730.904541 
	C972.354309,737.383972 972.100037,743.877563 971.726135,750.842407 
z"/>
<path fill="#1C3B36" opacity="1.000000" stroke="none" 
	d="
M737.070068,750.684570 
	C738.389160,740.721436 738.315063,730.733704 741.373352,721.820801 
	C747.347961,704.408875 763.578979,691.448853 785.354309,696.829651 
	C794.376160,699.058960 800.201843,704.609497 804.024353,712.665527 
	C811.052673,727.478149 808.875488,755.241150 794.299133,769.592468 
	C785.369812,778.383850 774.626587,781.925354 762.446045,780.718323 
	C751.356384,779.619385 740.943176,768.928406 738.017578,756.553711 
	C737.597656,754.777466 737.395508,752.949707 737.070068,750.684570 
M788.949158,754.235352 
	C792.709961,743.180664 795.379700,732.104614 789.496399,720.895508 
	C785.438293,713.163818 778.858276,709.408875 770.190857,710.496826 
	C762.315796,711.485291 756.768555,716.259460 755.066772,723.782715 
	C753.252075,731.804626 752.124084,740.173035 752.182800,748.379517 
	C752.256775,758.719543 763.269836,768.917419 772.286255,768.004944 
	C780.407898,767.182922 785.218079,761.827576 788.949158,754.235352 
z"/>
<path fill="#D9D9D9" opacity="1.000000" stroke="none" 
	d="
M436.611938,742.292419 
	C433.184998,743.475037 429.928680,744.279358 425.149078,745.459900 
	C427.733276,736.927551 429.833405,729.993469 431.933533,723.059387 
	C432.685486,723.091309 433.437439,723.123230 434.189423,723.155151 
	C435.053772,729.408142 435.918152,735.661133 436.611938,742.292419 
z"/>
<path fill="#D9D9D9" opacity="1.000000" stroke="none" 
	d="
M788.804932,754.588867 
	C785.218079,761.827576 780.407898,767.182922 772.286255,768.004944 
	C763.269836,768.917419 752.256775,758.719543 752.182800,748.379517 
	C752.124084,740.173035 753.252075,731.804626 755.066772,723.782715 
	C756.768555,716.259460 762.315796,711.485291 770.190857,710.496826 
	C778.858276,709.408875 785.438293,713.163818 789.496399,720.895508 
	C795.379700,732.104614 792.709961,743.180664 788.804932,754.588867 
z"/>
</svg>